<?xml version="1.0" encoding="UTF-8" standalone="no"?>
<!-- Created with Inkscape (http://www.inkscape.org/) -->

<svg
   xmlns:dc="http://purl.org/dc/elements/1.1/"
   xmlns:cc="http://creativecommons.org/ns#"
   xmlns:rdf="http://www.w3.org/1999/02/22-rdf-syntax-ns#"
   xmlns:svg="http://www.w3.org/2000/svg"
   xmlns="http://www.w3.org/2000/svg"
   xmlns:sodipodi="http://sodipodi.sourceforge.net/DTD/sodipodi-0.dtd"
   xmlns:inkscape="http://www.inkscape.org/namespaces/inkscape"
   width="80mm"
   height="60mm"
   viewBox="0 0 80 60"
   version="1.1"
   id="svg2154"
   inkscape:version="0.92.3 (2405546, 2018-03-11)"
   sodipodi:docname="Fig_7.svg">
  <defs
     id="defs2148">
    <marker
       inkscape:isstock="true"
       style="overflow:visible"
       id="marker4413"
       refX="0"
       refY="0"
       orient="auto"
       inkscape:stockid="Arrow1Lend">
      <path
         inkscape:connector-curvature="0"
         transform="matrix(-0.8,0,0,-0.8,-10,0)"
         style="fill:#000000;fill-opacity:1;fill-rule:evenodd;stroke:#000000;stroke-width:1.00000003pt;stroke-opacity:1"
         d="M 0,0 5,-5 -12.5,0 5,5 Z"
         id="path4411" />
    </marker>
    <marker
       inkscape:isstock="true"
       style="overflow:visible"
       id="marker3831"
       refX="0"
       refY="0"
       orient="auto"
       inkscape:stockid="Arrow1Lstart">
      <path
         inkscape:connector-curvature="0"
         transform="matrix(0.8,0,0,0.8,10,0)"
         style="fill:#000000;fill-opacity:1;fill-rule:evenodd;stroke:#000000;stroke-width:1.00000003pt;stroke-opacity:1"
         d="M 0,0 5,-5 -12.5,0 5,5 Z"
         id="path3829" />
    </marker>
    <marker
       inkscape:isstock="true"
       style="overflow:visible"
       id="marker3731"
       refX="0"
       refY="0"
       orient="auto"
       inkscape:stockid="Arrow1Lend">
      <path
         inkscape:connector-curvature="0"
         transform="matrix(-0.8,0,0,-0.8,-10,0)"
         style="fill:#000000;fill-opacity:1;fill-rule:evenodd;stroke:#000000;stroke-width:1.00000003pt;stroke-opacity:1"
         d="M 0,0 5,-5 -12.5,0 5,5 Z"
         id="path3729" />
    </marker>
    <marker
       inkscape:stockid="Arrow1Lend"
       orient="auto"
       refY="0"
       refX="0"
       id="Arrow1Lend"
       style="overflow:visible"
       inkscape:isstock="true"
       inkscape:collect="always">
      <path
         id="path1101"
         d="M 0,0 5,-5 -12.5,0 5,5 Z"
         style="fill:#000000;fill-opacity:1;fill-rule:evenodd;stroke:#000000;stroke-width:1.00000003pt;stroke-opacity:1"
         transform="matrix(-0.8,0,0,-0.8,-10,0)"
         inkscape:connector-curvature="0" />
    </marker>
    <marker
       inkscape:stockid="Arrow1Lstart"
       orient="auto"
       refY="0"
       refX="0"
       id="marker2844"
       style="overflow:visible"
       inkscape:isstock="true"
       inkscape:collect="always">
      <path
         id="path2842"
         d="M 0,0 5,-5 -12.5,0 5,5 Z"
         style="fill:#000000;fill-opacity:1;fill-rule:evenodd;stroke:#000000;stroke-width:1.00000003pt;stroke-opacity:1"
         transform="matrix(0.8,0,0,0.8,10,0)"
         inkscape:connector-curvature="0" />
    </marker>
    <marker
       inkscape:stockid="Arrow1Lstart"
       orient="auto"
       refY="0"
       refX="0"
       id="Arrow1Lstart"
       style="overflow:visible"
       inkscape:isstock="true">
      <path
         id="path1098"
         d="M 0,0 5,-5 -12.5,0 5,5 Z"
         style="fill:#000000;fill-opacity:1;fill-rule:evenodd;stroke:#000000;stroke-width:1.00000003pt;stroke-opacity:1"
         transform="matrix(0.8,0,0,0.8,10,0)"
         inkscape:connector-curvature="0" />
    </marker>
    <marker
       inkscape:stockid="Arrow1Lstart"
       orient="auto"
       refY="0"
       refX="0"
       id="marker2844-1"
       style="overflow:visible"
       inkscape:isstock="true"
       inkscape:collect="always">
      <path
         id="path2842-9"
         d="M 0,0 5,-5 -12.5,0 5,5 Z"
         style="fill:#000000;fill-opacity:1;fill-rule:evenodd;stroke:#000000;stroke-width:1.00000003pt;stroke-opacity:1"
         transform="matrix(0.8,0,0,0.8,10,0)"
         inkscape:connector-curvature="0" />
    </marker>
  </defs>
  <sodipodi:namedview
     id="base"
     pagecolor="#ffffff"
     bordercolor="#666666"
     borderopacity="1.0"
     inkscape:pageopacity="0.0"
     inkscape:pageshadow="2"
     inkscape:zoom="2"
     inkscape:cx="166.12569"
     inkscape:cy="99.339334"
     inkscape:document-units="mm"
     inkscape:current-layer="layer1"
     showgrid="false"
     inkscape:snap-bbox="false"
     inkscape:window-width="1853"
     inkscape:window-height="1019"
     inkscape:window-x="67"
     inkscape:window-y="27"
     inkscape:window-maximized="1" />
  <metadata
     id="metadata2151">
    <rdf:RDF>
      <cc:Work
         rdf:about="">
        <dc:format>image/svg+xml</dc:format>
        <dc:type
           rdf:resource="http://purl.org/dc/dcmitype/StillImage" />
        <dc:title></dc:title>
      </cc:Work>
    </rdf:RDF>
  </metadata>
  <g
     inkscape:label="Layer 1"
     inkscape:groupmode="layer"
     id="layer1"
     transform="translate(0,-237)">
    <path
       style="fill:none;fill-opacity:0.99705882;stroke:#000000;stroke-width:0.25;stroke-miterlimit:4;stroke-dasharray:none;stroke-dashoffset:0;stroke-opacity:1"
       d="m 25.526361,248.55718 a 12.373604,12.373605 0 0 0 -12.373404,12.37392 12.373604,12.373605 0 0 0 12.373404,12.3734 12.373604,12.373605 0 0 0 1.69292,-0.13022 8.9072227,8.9072216 0 0 0 -1.068152,4.22455 8.9072227,8.9072216 0 0 0 8.907468,8.90695 8.9072227,8.9072216 0 0 0 8.906949,-8.90695 8.9072227,8.9072216 0 0 0 -8.671822,-8.89559 12.373604,12.373605 0 0 0 2.606043,-7.57214 12.373604,12.373605 0 0 0 -12.373406,-12.37392 z"
       id="path2730"
       inkscape:connector-curvature="0" />
    <path
       style="fill:none;fill-opacity:0.99705882;stroke:#000000;stroke-width:0.25;stroke-miterlimit:4;stroke-dasharray:none;stroke-dashoffset:0;stroke-opacity:1"
       d="m 46.527147,246.55471 a 7.3757091,7.3757091 0 0 0 -7.375777,7.37527 7.3757091,7.3757091 0 0 0 7.375777,7.37577 7.3757091,7.3757091 0 0 0 6.639904,-4.18527 8.8757542,8.8757553 0 0 0 -0.0155,0.30954 8.8757542,8.8757553 0 0 0 1.071769,4.21163 8.8776692,8.8776703 0 0 0 -1.194242,-0.091 8.8776692,8.8776703 0 0 0 -8.877496,8.87749 8.8776692,8.8776703 0 0 0 8.877496,8.8775 8.8776692,8.8776703 0 0 0 8.877493,-8.8775 8.8776692,8.8776703 0 0 0 -1.072803,-4.21318 8.8757542,8.8757553 0 0 0 1.19321,0.091 8.8757542,8.8757553 0 0 0 8.875945,-8.87594 8.8757542,8.8757553 0 0 0 -8.875945,-8.87543 8.8757542,8.8757553 0 0 0 -8.126119,5.31751 7.3757091,7.3757091 0 0 0 -7.37371,-7.31739 z"
       id="path2736"
       inkscape:connector-curvature="0" />
    <circle
       cy="260.43091"
       cx="25.526325"
       id="circle2753"
       style="fill:#000000;fill-opacity:0.99705882;stroke:#000000;stroke-width:0.03033496;stroke-miterlimit:4;stroke-dasharray:none;stroke-dashoffset:0;stroke-opacity:1"
       r="1.4848325" />
    <circle
       cy="277.43091"
       cx="35.026325"
       id="circle2753-6"
       style="fill:#000000;fill-opacity:0.99705882;stroke:#000000;stroke-width:0.03033496;stroke-miterlimit:4;stroke-dasharray:none;stroke-dashoffset:0;stroke-opacity:1"
       r="1.4848325" />
    <circle
       cy="270.43091"
       cx="53.026325"
       id="circle2753-0"
       style="fill:#000000;fill-opacity:0.99705882;stroke:#000000;stroke-width:0.03033496;stroke-miterlimit:4;stroke-dasharray:none;stroke-dashoffset:0;stroke-opacity:1"
       r="1.4848325" />
    <circle
       cy="257.43091"
       cx="62.026325"
       id="circle2753-62"
       style="fill:#000000;fill-opacity:0.99705882;stroke:#000000;stroke-width:0.03033496;stroke-miterlimit:4;stroke-dasharray:none;stroke-dashoffset:0;stroke-opacity:1"
       r="1.4848325" />
    <circle
       cy="253.93089"
       cx="46.526325"
       id="circle2753-61"
       style="fill:#000000;fill-opacity:0.99705882;stroke:#000000;stroke-width:0.03033496;stroke-miterlimit:4;stroke-dasharray:none;stroke-dashoffset:0;stroke-opacity:1"
       r="1.4848325" />
    <path
       style="fill:none;stroke:#000000;stroke-width:0.2;stroke-linecap:butt;stroke-linejoin:miter;stroke-miterlimit:4;stroke-dasharray:none;stroke-opacity:1;marker-end:url(#Arrow1Lend)"
       d="M 25.519013,260.4269 16.337602,253.1"
       id="path2790"
       inkscape:connector-curvature="0" />
    <flowRoot
       xml:space="preserve"
       id="flowRoot3076"
       style="font-style:normal;font-weight:normal;font-size:40px;line-height:1.25;font-family:sans-serif;letter-spacing:0px;word-spacing:0px;fill:#000000;fill-opacity:1;stroke:none"
       transform="matrix(0.26458333,0,0,0.26458333,-23.386084,30.401909)"><flowRegion
         id="flowRegion3078"><rect
           id="rect3080"
           width="223.09219"
           height="117.37973"
           x="91.216774"
           y="801.84674" /></flowRegion><flowPara
         style="font-size:26.66666794px;text-align:center;text-anchor:middle"
         id="flowPara3088">Radio de</flowPara><flowPara
         style="font-size:26.66666794px;text-align:center;text-anchor:middle"
         id="flowPara3494">van der Waals</flowPara></flowRoot>    <circle
       style="fill:none;fill-opacity:0.99705882;stroke:#ff0000;stroke-width:0.2;stroke-miterlimit:4;stroke-dasharray:none;stroke-dashoffset:0;stroke-opacity:1"
       id="path3490"
       cx="47.466301"
       cy="282.66824"
       r="4.4039216" />
    <flowRoot
       xml:space="preserve"
       id="flowRoot3598"
       style="font-style:normal;font-weight:normal;font-size:26.66666603px;line-height:1.25;font-family:sans-serif;letter-spacing:0px;word-spacing:0px;fill:#000000;fill-opacity:1;stroke:none"
       transform="scale(0.26458333)"><flowRegion
         id="flowRegion3600"
         style="font-size:26.66666603px"><rect
           id="rect3602"
           width="101"
           height="44.75"
           x="197.75"
           y="939.01971"
           style="font-size:26.66666603px" /></flowRegion><flowPara
         id="flowPara3604"></flowPara></flowRoot>    <flowRoot
       xml:space="preserve"
       id="flowRoot3606"
       style="font-style:normal;font-weight:normal;font-size:40px;line-height:1.25;font-family:sans-serif;letter-spacing:0px;word-spacing:0px;fill:#000000;fill-opacity:1;stroke:none"
       transform="scale(0.26458333)"><flowRegion
         id="flowRegion3608"><rect
           id="rect3610"
           width="136.25"
           height="151"
           x="198.5"
           y="926.51971" /></flowRegion><flowPara
         id="flowPara3612">sONDASionS</flowPara></flowRoot>    <flowRoot
       xml:space="preserve"
       id="flowRoot3614"
       style="font-style:normal;font-weight:normal;font-size:40px;line-height:1.25;font-family:sans-serif;letter-spacing:0px;word-spacing:0px;fill:#000000;fill-opacity:1;stroke:none"
       transform="matrix(0.26458333,0,0,0.26458333,8.5866846,40.964158)"><flowRegion
         id="flowRegion3616"><rect
           id="rect3618"
           width="83.75"
           height="50.250061"
           x="161.25"
           y="935.76971" /></flowRegion><flowPara
         style="font-size:26.66666794px"
         id="flowPara3622">Sonda</flowPara></flowRoot>  </g>
  <g
     inkscape:groupmode="layer"
     id="layer3"
     inkscape:label="Layer 3">
    <path
       style="fill:none;fill-opacity:0.99705882;stroke:#000000;stroke-width:0.25;stroke-miterlimit:4;stroke-dasharray:none;stroke-dashoffset:0;stroke-opacity:1"
       d="m 25.526361,11.55718 a 12.373604,12.373605 0 0 0 -12.373404,12.37392 12.373604,12.373605 0 0 0 12.373404,12.3734 12.373604,12.373605 0 0 0 1.69292,-0.13022 8.9072228,8.9072217 0 0 0 -1.068152,4.224549 8.9072228,8.9072217 0 0 0 8.907468,8.906952 8.9072228,8.9072217 0 0 0 8.906949,-8.906952 A 8.9072228,8.9072217 0 0 0 35.293724,31.50324 12.373604,12.373605 0 0 0 37.899767,23.9311 12.373604,12.373605 0 0 0 25.526361,11.55718 Z"
       id="path2730-5"
       inkscape:connector-curvature="0" />
    <path
       style="fill:none;fill-opacity:0.99705882;stroke:#000000;stroke-width:0.25;stroke-miterlimit:4;stroke-dasharray:none;stroke-dashoffset:0;stroke-opacity:1"
       d="m 46.527147,9.55471 a 7.3757091,7.3757091 0 0 0 -7.375777,7.37527 7.3757091,7.3757091 0 0 0 7.375777,7.37577 7.3757091,7.3757091 0 0 0 6.639903,-4.18527 8.8757543,8.8757554 0 0 0 -0.0155,0.30954 8.8757543,8.8757554 0 0 0 1.071769,4.21163 8.8776694,8.8776704 0 0 0 -1.194242,-0.091 8.8776694,8.8776704 0 0 0 -8.877496,8.87749 8.8776694,8.8776704 0 0 0 8.877496,8.877499 8.8776694,8.8776704 0 0 0 8.877493,-8.877499 8.8776694,8.8776704 0 0 0 -1.072803,-4.21318 8.8757543,8.8757554 0 0 0 1.19321,0.091 8.8757543,8.8757554 0 0 0 8.875945,-8.87594 8.8757543,8.8757554 0 0 0 -8.87594,-8.87543 8.8757543,8.8757554 0 0 0 -8.126119,5.31751 7.3757091,7.3757091 0 0 0 -7.37371,-7.31739 z"
       id="path2736-9"
       inkscape:connector-curvature="0" />
    <path
       style="fill:none;fill-opacity:0.99705882;stroke:#ff0000;stroke-width:0.2;stroke-miterlimit:4;stroke-dasharray:0.6,0.6;stroke-dashoffset:0;stroke-opacity:1"
       d="m 8.4224281,23.426901 c 0,-9.442183 7.6544009,-17.0965839 17.0965839,-17.0965845 4.203191,-2e-7 8.052117,1.5167865 11.039734,4.0296085 2.139275,-3.2327595 5.798836,-5.3639934 9.956173,-5.3639934 3.59337,0 6.814856,1.5922247 9.002554,4.1053613 1.921421,-1.0961949 4.139072,-1.7199815 6.502417,-1.7199815 7.258666,0 13.142978,5.8843126 13.142978,13.1429786 0,5.681788 -3.605388,10.521492 -8.663032,12.345426 0.0034,0.233652 0.01018,0.479736 0.01018,0.727395 h 3e-6 c 0,7.374908 -5.978545,13.353453 -13.353453,13.353453 -2.031226,0 -3.956527,-0.453522 -5.673271,-1.263843 -2.048938,4.873825 -6.871131,8.294009 -12.49215,8.294009 -7.488924,-1e-6 -13.559895,-6.070972 -13.559896,-13.559896 0,-0.136136 0.002,-0.271803 0.0041,-0.397783 C 13.964051,38.200712 8.4224281,31.460964 8.4224281,23.426901 Z"
       id="path3704"
       inkscape:connector-curvature="0"
       sodipodi:nodetypes="sscscsscscscsscs" />
    <path
       style="fill:none;stroke:#000000;stroke-width:0.26458332px;stroke-linecap:butt;stroke-linejoin:miter;stroke-opacity:1;marker-start:url(#marker2844)"
       d="M 51.683244,10.725521 64.264957,3.4992214"
       id="path3721"
       inkscape:connector-curvature="0"
       sodipodi:nodetypes="cc" />
    <path
       style="fill:none;stroke:#000000;stroke-width:0.26458332px;stroke-linecap:butt;stroke-linejoin:miter;stroke-opacity:1;marker-end:url(#marker3731)"
       d="M 9.354433,49.335946 C 9.6639255,48.000705 12.534941,35.304294 12.534941,35.304294"
       id="path4403"
       inkscape:connector-curvature="0"
       sodipodi:nodetypes="cc" />
    <flowRoot
       xml:space="preserve"
       id="flowRoot4775"
       style="fill:black;fill-opacity:1;stroke:none;font-family:sans-serif;font-style:normal;font-weight:normal;font-size:40px;line-height:1.25;letter-spacing:0px;word-spacing:0px"><flowRegion
         id="flowRegion4777"><rect
           id="rect4779"
           width="173.5"
           height="82"
           x="208.5"
           y="-22.728348" /></flowRegion><flowPara
         id="flowPara4781"></flowPara></flowRoot>    <flowRoot
       xml:space="preserve"
       id="flowRoot4783"
       style="font-style:normal;font-weight:normal;font-size:40px;line-height:1.25;font-family:sans-serif;letter-spacing:0px;word-spacing:0px;fill:#000000;fill-opacity:1;stroke:none"
       transform="matrix(0.26458333,0,0,0.26458333,13.758333,0.66145833)"><flowRegion
         id="flowRegion4785"><rect
           id="rect4787"
           width="85"
           height="50"
           x="181"
           y="-21.728348" /></flowRegion><flowPara
         id="flowPara4789">SES</flowPara></flowRoot>    <flowRoot
       xml:space="preserve"
       id="flowRoot4783-1"
       style="font-style:normal;font-weight:normal;font-size:40px;line-height:1.25;font-family:sans-serif;letter-spacing:0px;word-spacing:0px;fill:#000000;fill-opacity:1;stroke:none"
       transform="matrix(0.26458333,0,0,0.26458333,-53.777079,55.739795)"><flowRegion
         id="flowRegion4785-2"><rect
           id="rect4787-9"
           width="85"
           height="50"
           x="181"
           y="-21.728348" /></flowRegion><flowPara
         id="flowPara4789-3">SAS</flowPara></flowRoot>    <path
       style="fill:none;stroke:#000000;stroke-width:0.26458332px;stroke-linecap:butt;stroke-linejoin:miter;stroke-opacity:1;marker-start:url(#marker2844-1)"
       d="m 50.606872,49.672368 9.37782,8.886711"
       id="path3721-4"
       inkscape:connector-curvature="0"
       sodipodi:nodetypes="cc" />
  </g>
  <g
     inkscape:groupmode="layer"
     id="layer2"
     inkscape:label="Layer 2"
     transform="translate(0,-237)">
    <path
       style="fill:none;fill-opacity:0.99705882;stroke:#f40000;stroke-width:0.5;stroke-miterlimit:4;stroke-dasharray:none;stroke-dashoffset:0;stroke-opacity:1"
       d="m 26.145962,277.42053 c 1.51e-4,4.91931 3.988155,8.90708 8.907465,8.90695 3.78846,-1.2e-4 6.884146,-2.50569 8.311967,-5.69973 0.74008,-1.45599 2.317573,-2.50076 4.06273,-2.50076 0.728999,0 1.426044,0.13601 2.034435,0.44485 1.084492,0.47208 2.281618,0.73387 3.539886,0.7339 4.902862,-1e-4 8.877393,-3.97463 8.877493,-8.87749 0,-2.30501 1.258689,-4.02388 3.0431,-4.61466 3.466214,-1.20823 5.953337,-4.50546 5.953252,-8.38357 -1.85e-4,-4.90189 -3.97406,-8.87553 -8.875948,-8.87542 -1.588958,7.9e-4 -3.109806,0.42564 -4.422402,1.23308 -0.771326,0.50348 -1.516893,0.57424 -2.386782,0.57171 -1.285232,-0.004 -2.568353,-0.68453 -3.385521,-1.55128 -1.341379,-1.38935 -3.223032,-2.25289 -5.305126,-2.25339 h 5e-6 c -2.68764,-2e-5 -5.039553,1.43748 -6.328777,3.58559 m -14.047481,27.25852 c 0,-2.05911 -1.561361,-3.95475 -3.498791,-4.43413 -5.399408,-1.33009 -9.499289,-6.22363 -9.499382,-12.0336 -1.74e-4,-6.8338 5.539606,-12.37381 12.373405,-12.37392 2.943884,5e-5 5.647634,1.02816 7.771815,2.74489 0.806386,0.65356 1.824627,1.06854 2.93035,1.06854 1.635011,0 3.187417,-0.92244 3.970084,-2.2303"
       id="path2730-8"
       inkscape:connector-curvature="0"
       sodipodi:nodetypes="cccscccccccscccccccccsc" />
  </g>
</svg>
